<mxfile host="app.diagrams.net" modified="2022-11-09T10:56:36.761Z" agent="5.0 (Windows NT 10.0; Win64; x64) AppleWebKit/537.36 (KHTML, like Gecko) Chrome/106.0.0.0 Safari/537.36" etag="d3zqHvOmDhNky6p8frWZ" version="20.5.3" type="github">
  <diagram id="u7oC6HwBz29w7ae33_Ae" name="Page-1">
    <mxGraphModel dx="2889" dy="2315" grid="1" gridSize="10" guides="1" tooltips="1" connect="1" arrows="1" fold="1" page="1" pageScale="1" pageWidth="827" pageHeight="1169" math="0" shadow="0">
      <root>
        <mxCell id="0" />
        <mxCell id="1" parent="0" />
        <mxCell id="uzkKgmChSdbGSanpGvmp-12" style="edgeStyle=orthogonalEdgeStyle;rounded=0;orthogonalLoop=1;jettySize=auto;html=1;fontSize=19;curved=1;entryX=1;entryY=0.5;entryDx=0;entryDy=0;strokeColor=#FF3333;" edge="1" parent="1" source="uzkKgmChSdbGSanpGvmp-1" target="uzkKgmChSdbGSanpGvmp-7">
          <mxGeometry relative="1" as="geometry">
            <mxPoint x="600" y="-90" as="targetPoint" />
            <Array as="points">
              <mxPoint x="670" y="140" />
              <mxPoint x="670" y="-10" />
            </Array>
          </mxGeometry>
        </mxCell>
        <mxCell id="uzkKgmChSdbGSanpGvmp-1" value="&lt;font style=&quot;font-size: 19px;&quot;&gt;F_ JUMPTABLE:&lt;br&gt;&amp;nbsp; &amp;nbsp; &amp;nbsp; &amp;nbsp; &amp;nbsp; &amp;nbsp; &amp;nbsp; &amp;nbsp; &amp;nbsp; &amp;nbsp; &amp;nbsp; &amp;nbsp; &amp;nbsp; &amp;nbsp; &amp;nbsp; JMP F@PLT&lt;/font&gt;" style="rounded=0;whiteSpace=wrap;html=1;fillColor=#dae8fc;strokeColor=#6c8ebf;align=left;" vertex="1" parent="1">
          <mxGeometry x="180" y="110" width="420" height="60" as="geometry" />
        </mxCell>
        <mxCell id="uzkKgmChSdbGSanpGvmp-17" style="edgeStyle=orthogonalEdgeStyle;curved=1;rounded=0;orthogonalLoop=1;jettySize=auto;html=1;exitX=1;exitY=0.5;exitDx=0;exitDy=0;entryX=1;entryY=0.5;entryDx=0;entryDy=0;fontSize=19;" edge="1" parent="1" source="uzkKgmChSdbGSanpGvmp-2" target="uzkKgmChSdbGSanpGvmp-3">
          <mxGeometry relative="1" as="geometry">
            <Array as="points">
              <mxPoint x="720" y="290" />
              <mxPoint x="720" y="-110" />
            </Array>
          </mxGeometry>
        </mxCell>
        <mxCell id="uzkKgmChSdbGSanpGvmp-2" value="&lt;span style=&quot;font-size: 19px;&quot;&gt;R_ JT:&lt;/span&gt;&lt;br style=&quot;font-size: 19px;&quot;&gt;&lt;span style=&quot;font-size: 19px;&quot;&gt;&amp;nbsp; &amp;nbsp; &amp;nbsp; &amp;nbsp; &amp;nbsp; &amp;nbsp; &amp;nbsp; &amp;nbsp; &amp;nbsp; &amp;nbsp; &amp;nbsp; &amp;nbsp; &amp;nbsp; &amp;nbsp; &amp;nbsp; JMP R@PLT&lt;/span&gt;" style="rounded=0;whiteSpace=wrap;html=1;fillColor=#dae8fc;strokeColor=#6c8ebf;align=left;" vertex="1" parent="1">
          <mxGeometry x="180" y="260" width="420" height="60" as="geometry" />
        </mxCell>
        <mxCell id="uzkKgmChSdbGSanpGvmp-3" value="&lt;span style=&quot;font-size: 23px;&quot;&gt;R:&lt;/span&gt;" style="rounded=0;whiteSpace=wrap;html=1;fillColor=#dae8fc;strokeColor=#6c8ebf;align=left;" vertex="1" parent="1">
          <mxGeometry x="180" y="-140" width="420" height="60" as="geometry" />
        </mxCell>
        <mxCell id="uzkKgmChSdbGSanpGvmp-5" value="" style="endArrow=none;dashed=1;html=1;dashPattern=1 3;strokeWidth=2;rounded=0;" edge="1" parent="1">
          <mxGeometry width="50" height="50" relative="1" as="geometry">
            <mxPoint x="389.5" y="80" as="sourcePoint" />
            <mxPoint x="390" y="50" as="targetPoint" />
          </mxGeometry>
        </mxCell>
        <mxCell id="uzkKgmChSdbGSanpGvmp-6" value="" style="endArrow=none;dashed=1;html=1;dashPattern=1 3;strokeWidth=2;rounded=0;" edge="1" parent="1">
          <mxGeometry width="50" height="50" relative="1" as="geometry">
            <mxPoint x="389.5" y="240" as="sourcePoint" />
            <mxPoint x="389.5" y="190" as="targetPoint" />
          </mxGeometry>
        </mxCell>
        <mxCell id="uzkKgmChSdbGSanpGvmp-7" value="&lt;font style=&quot;font-size: 23px;&quot;&gt;F:&lt;/font&gt;" style="rounded=0;whiteSpace=wrap;html=1;align=left;fillColor=#dae8fc;strokeColor=#6c8ebf;" vertex="1" parent="1">
          <mxGeometry x="180" y="-40" width="420" height="60" as="geometry" />
        </mxCell>
        <mxCell id="uzkKgmChSdbGSanpGvmp-15" style="edgeStyle=orthogonalEdgeStyle;curved=1;rounded=0;orthogonalLoop=1;jettySize=auto;html=1;entryX=0;entryY=0.5;entryDx=0;entryDy=0;fontSize=19;exitX=0;exitY=0.5;exitDx=0;exitDy=0;strokeColor=#FF3333;" edge="1" parent="1" source="uzkKgmChSdbGSanpGvmp-8" target="uzkKgmChSdbGSanpGvmp-1">
          <mxGeometry relative="1" as="geometry">
            <Array as="points">
              <mxPoint x="70" y="-220" />
              <mxPoint x="70" y="140" />
            </Array>
          </mxGeometry>
        </mxCell>
        <mxCell id="uzkKgmChSdbGSanpGvmp-8" value="&lt;font style=&quot;font-size: 23px;&quot;&gt;&lt;font color=&quot;#ff3333&quot;&gt;&amp;lt;transform/check %rax&amp;gt;&lt;/font&gt;&lt;br&gt;call *%rax&lt;br&gt;&lt;/font&gt;" style="rounded=0;whiteSpace=wrap;html=1;fillColor=#dae8fc;strokeColor=#6c8ebf;" vertex="1" parent="1">
          <mxGeometry x="180" y="-250" width="420" height="60" as="geometry" />
        </mxCell>
        <mxCell id="uzkKgmChSdbGSanpGvmp-9" value="" style="strokeWidth=2;html=1;shape=mxgraph.flowchart.annotation_2;align=left;labelPosition=right;pointerEvents=1;dashed=1;perimeterSpacing=2;" vertex="1" parent="1">
          <mxGeometry x="110" y="60" width="50" height="330" as="geometry" />
        </mxCell>
        <mxCell id="uzkKgmChSdbGSanpGvmp-10" value="" style="endArrow=none;dashed=1;html=1;dashPattern=1 3;strokeWidth=2;rounded=0;" edge="1" parent="1">
          <mxGeometry width="50" height="50" relative="1" as="geometry">
            <mxPoint x="389.5" y="-150" as="sourcePoint" />
            <mxPoint x="390" y="-180" as="targetPoint" />
          </mxGeometry>
        </mxCell>
        <mxCell id="uzkKgmChSdbGSanpGvmp-11" value="跳转表&lt;br&gt;大小为2&lt;sup&gt;n&lt;/sup&gt;" style="text;html=1;align=center;verticalAlign=middle;resizable=0;points=[];autosize=1;strokeColor=none;fillColor=none;fontSize=23;" vertex="1" parent="1">
          <mxGeometry x="-20" y="190" width="120" height="70" as="geometry" />
        </mxCell>
        <mxCell id="uzkKgmChSdbGSanpGvmp-18" value="" style="endArrow=none;dashed=1;html=1;dashPattern=1 3;strokeWidth=2;rounded=0;" edge="1" parent="1">
          <mxGeometry width="50" height="50" relative="1" as="geometry">
            <mxPoint x="389.5" y="390" as="sourcePoint" />
            <mxPoint x="389.5" y="340" as="targetPoint" />
          </mxGeometry>
        </mxCell>
      </root>
    </mxGraphModel>
  </diagram>
</mxfile>
